<svg width="45" height="45" viewBox="0 0 45 45" fill="none" xmlns="http://www.w3.org/2000/svg">
<path fill-rule="evenodd" clip-rule="evenodd" d="M8.4 3H8.25C7.563 3 6.972 3 6.45 3.123C5.64191 3.31609 4.90305 3.72914 4.31529 4.31637C3.72753 4.9036 3.31382 5.64208 3.12 6.45C3 6.972 3 7.56 3 8.25V15.75C3 16.437 3 17.028 3.123 17.55C3.31609 18.3581 3.72914 19.0969 4.31637 19.6847C4.9036 20.2725 5.64208 20.6862 6.45 20.88C6.972 21 7.56 21 8.25 21H15.75C16.437 21 17.028 21 17.55 20.877C18.3581 20.6839 19.0969 20.2709 19.6847 19.6836C20.2725 19.0964 20.6862 18.3579 20.88 17.55C21 17.028 21 16.44 21 15.75V8.25C21 7.563 21 6.972 20.877 6.45C20.6839 5.64191 20.2709 4.90305 19.6836 4.31529C19.0964 3.72753 18.3579 3.31382 17.55 3.12C17.028 3 16.44 3 15.75 3H8.4ZM7.149 6.042C7.278 6.012 7.479 6 8.4 6H15.6C16.524 6 16.722 6.009 16.851 6.042C17.1205 6.10644 17.3669 6.24428 17.5628 6.44021C17.7587 6.63614 17.8966 6.88251 17.961 7.152C17.991 7.278 18 7.476 18 8.4V15.6C18 16.524 17.991 16.722 17.958 16.851C17.8936 17.1205 17.7557 17.3669 17.5598 17.5628C17.3639 17.7587 17.1175 17.8966 16.848 17.961C16.725 17.988 16.527 18 15.6 18H8.4C7.476 18 7.278 17.991 7.149 17.958C6.87951 17.8936 6.63314 17.7557 6.43721 17.5598C6.24128 17.3639 6.10344 17.1175 6.039 16.848C6.012 16.725 6 16.527 6 15.6V8.4C6 7.476 6.009 7.278 6.042 7.149C6.10644 6.87951 6.24428 6.63314 6.44021 6.43721C6.63614 6.24128 6.88251 6.10344 7.152 6.039L7.149 6.042ZM29.4 3H29.25C28.563 3 27.972 3 27.45 3.123C26.6419 3.31609 25.9031 3.72914 25.3153 4.31637C24.7275 4.9036 24.3138 5.64208 24.12 6.45C24 6.972 24 7.56 24 8.25V15.75C24 16.437 24 17.028 24.123 17.55C24.3161 18.3581 24.7291 19.0969 25.3164 19.6847C25.9036 20.2725 26.6421 20.6862 27.45 20.88C27.972 21 28.56 21 29.25 21H36.75C37.437 21 38.028 21 38.55 20.877C39.3581 20.6839 40.0969 20.2709 40.6847 19.6836C41.2725 19.0964 41.6862 18.3579 41.88 17.55C42 17.028 42 16.44 42 15.75V8.25C42 7.563 42 6.972 41.877 6.45C41.6839 5.64191 41.2709 4.90305 40.6836 4.31529C40.0964 3.72753 39.3579 3.31382 38.55 3.12C38.028 3 37.44 3 36.75 3H29.4ZM28.149 6.042C28.278 6.012 28.479 6 29.4 6H36.6C37.524 6 37.722 6.009 37.851 6.042C38.1205 6.10644 38.3669 6.24428 38.5628 6.44021C38.7587 6.63614 38.8966 6.88251 38.961 7.152C38.991 7.278 39 7.476 39 8.4V15.6C39 16.524 38.988 16.722 38.958 16.851C38.8936 17.1205 38.7557 17.3669 38.5598 17.5628C38.3639 17.7587 38.1175 17.8966 37.848 17.961C37.722 17.991 37.524 18 36.6 18H29.4C28.476 18 28.278 17.991 28.149 17.958C27.8795 17.8936 27.6331 17.7557 27.4372 17.5598C27.2413 17.3639 27.1034 17.1175 27.039 16.848C27.012 16.725 27 16.527 27 15.6V8.4C27 7.476 27.009 7.278 27.042 7.149C27.1064 6.87951 27.2443 6.63314 27.4402 6.43721C27.6361 6.24128 27.8825 6.10344 28.152 6.039L28.149 6.042ZM8.25 24H15.75C16.437 24 17.028 24 17.55 24.123C18.3581 24.3161 19.0969 24.7291 19.6847 25.3164C20.2725 25.9036 20.6862 26.6421 20.88 27.45C21 27.972 21 28.56 21 29.25V36.75C21 37.437 21 38.028 20.877 38.55C20.6839 39.3581 20.2709 40.0969 19.6836 40.6847C19.0964 41.2725 18.3579 41.6862 17.55 41.88C17.028 42 16.44 42 15.75 42H8.25C7.563 42 6.972 42 6.45 41.877C5.64191 41.6839 4.90305 41.2709 4.31529 40.6836C3.72753 40.0964 3.31382 39.3579 3.12 38.55C3 38.028 3 37.44 3 36.75V29.25C3 28.563 3 27.972 3.123 27.45C3.31609 26.6419 3.72914 25.903 4.31637 25.3153C4.9036 24.7275 5.64208 24.3138 6.45 24.12C6.972 24 7.56 24 8.25 24ZM8.4 27C7.476 27 7.278 27.009 7.149 27.042C6.87951 27.1064 6.63314 27.2443 6.43721 27.4402C6.24128 27.6361 6.10344 27.8825 6.039 28.152C6.012 28.275 6 28.473 6 29.4V36.6C6 37.524 6.009 37.722 6.042 37.851C6.10644 38.1205 6.24428 38.3669 6.44021 38.5628C6.63614 38.7587 6.88251 38.8966 7.152 38.961C7.278 38.991 7.476 39 8.4 39H15.6C16.524 39 16.722 38.988 16.851 38.958C17.1205 38.8936 17.3669 38.7557 17.5628 38.5598C17.7587 38.3639 17.8966 38.1175 17.961 37.848C17.991 37.722 18 37.524 18 36.6V29.4C18 28.476 17.991 28.278 17.958 28.149C17.8936 27.8795 17.7557 27.6331 17.5598 27.4372C17.3639 27.2413 17.1175 27.1034 16.848 27.039C16.725 27.012 16.527 27 15.6 27H8.4ZM29.4 24H29.25C28.563 24 27.972 24 27.45 24.123C26.6419 24.3161 25.9031 24.7291 25.3153 25.3164C24.7275 25.9036 24.3138 26.6421 24.12 27.45C24 27.972 24 28.56 24 29.25V36.75C24 37.437 24 38.028 24.123 38.55C24.3161 39.3581 24.7291 40.0969 25.3164 40.6847C25.9036 41.2725 26.6421 41.6862 27.45 41.88C27.972 42.003 28.563 42.003 29.25 42.003H36.75C37.437 42.003 38.028 42.003 38.55 41.88C39.3575 41.6864 40.0958 41.2732 40.683 40.686C41.2702 40.0988 41.6834 39.3605 41.877 38.553C42 38.031 42 37.44 42 36.753V29.25C42 28.563 42 27.972 41.877 27.45C41.6839 26.6419 41.2709 25.903 40.6836 25.3153C40.0964 24.7275 39.3579 24.3138 38.55 24.12C38.028 24 37.44 24 36.75 24H29.4ZM28.149 27.042C28.278 27.012 28.479 27 29.4 27H36.6C37.524 27 37.722 27.009 37.851 27.042C38.1205 27.1064 38.3669 27.2443 38.5628 27.4402C38.7587 27.6361 38.8966 27.8825 38.961 28.152C38.991 28.278 39 28.476 39 29.4V36.6C39 37.524 38.988 37.722 38.958 37.851C38.8936 38.1205 38.7557 38.3669 38.5598 38.5628C38.3639 38.7587 38.1175 38.8966 37.848 38.961C37.722 38.991 37.524 39 36.6 39H29.4C28.476 39 28.278 38.988 28.149 38.958C27.8795 38.8936 27.6331 38.7557 27.4372 38.5598C27.2413 38.3639 27.1034 38.1175 27.039 37.848C27.012 37.725 27 37.527 27 36.6V29.4C27 28.476 27.009 28.278 27.042 28.149C27.1064 27.8795 27.2443 27.6331 27.4402 27.4372C27.6361 27.2413 27.8825 27.1034 28.152 27.039L28.149 27.042Z" fill="black"/>
</svg>
